<svg width="24" height="24" viewBox="0 0 24 24" fill="none" xmlns="http://www.w3.org/2000/svg">
<path fill-rule="evenodd" clip-rule="evenodd" d="M2.99311 9.07012C2.36096 9.63904 2 10.4495 2 11.3V18.9639C2 20.6208 3.34315 21.9639 5 21.9639H19C20.6569 21.9639 22 20.6208 22 18.9639V11.3C22 10.4495 21.639 9.63904 21.0069 9.07012L14.0069 2.77012C12.866 1.74329 11.134 1.74329 9.9931 2.77012L2.99311 9.07012ZM11 12.9639C9.89543 12.9639 9 13.8593 9 14.9639V18.9639C9 19.5162 9.44772 19.9639 10 19.9639H14C14.5523 19.9639 15 19.5162 15 18.9639V14.9639C15 13.8593 14.1046 12.9639 13 12.9639H11Z" fill="#9DA6BA"/>
</svg>
