<svg width="18" height="20" viewBox="0 0 18 20" fill="none" xmlns="http://www.w3.org/2000/svg">
<path fill-rule="evenodd" clip-rule="evenodd" d="M3 0C1.34315 0 0 1.34315 0 3V17C0 18.6569 1.34315 20 3 20H15C16.6569 20 18 18.6569 18 17V5.74264C18 4.94699 17.6839 4.18393 17.1213 3.62132L14.3787 0.87868C13.8161 0.316071 13.053 0 12.2574 0H3ZM12 2.2071V4C12 5.10457 12.8954 6 14 6H15.7929C16.2383 6 16.4614 5.46143 16.1464 5.14644L12.8536 1.85355C12.5386 1.53857 12 1.76165 12 2.2071ZM4 9C4 8.44771 4.44772 8 5 8H13C13.5523 8 14 8.44771 14 9C14 9.55229 13.5523 10 13 10H5C4.44772 10 4 9.55229 4 9ZM5 12C4.44772 12 4 12.4477 4 13C4 13.5523 4.44772 14 5 14H9C9.55228 14 10 13.5523 10 13C10 12.4477 9.55228 12 9 12H5Z" fill="#9DA6BA"/>
</svg>
