<svg width="9" height="9" viewBox="0 0 9 9" fill="none" xmlns="http://www.w3.org/2000/svg">
<path fill-rule="evenodd" clip-rule="evenodd" d="M8.1 4.5C8.1 6.48822 6.48822 8.1 4.5 8.1C2.51177 8.1 0.9 6.48822 0.9 4.5C0.9 2.51177 2.51177 0.9 4.5 0.9C6.48822 0.9 8.1 2.51177 8.1 4.5ZM9 4.5C9 6.98528 6.98528 9 4.5 9C2.01472 9 0 6.98528 0 4.5C0 2.01472 2.01472 0 4.5 0C6.98528 0 9 2.01472 9 4.5ZM4.95002 2.25C4.95002 2.00147 4.74855 1.8 4.50002 1.8C4.25149 1.8 4.05002 2.00147 4.05002 2.25V4.3136C4.05002 4.55229 4.14484 4.78121 4.31362 4.95L5.30682 5.94319C5.48256 6.11893 5.76748 6.11893 5.94322 5.94319C6.11895 5.76746 6.11895 5.48253 5.94322 5.3068L4.95002 4.3136V2.25Z" fill="#5B68FF"/>
</svg>
