<svg width="11" height="9" viewBox="0 0 11 9" fill="none" xmlns="http://www.w3.org/2000/svg">
<path fill-rule="evenodd" clip-rule="evenodd" d="M1.65 1.05882H3.85C4.45751 1.05882 4.95 1.53288 4.95 2.11765V7.70743L4.70589 7.62911C4.25723 7.48515 3.78741 7.41177 3.31448 7.41177H1.65C1.34624 7.41177 1.1 7.17474 1.1 6.88235V1.58824C1.1 1.29585 1.34624 1.05882 1.65 1.05882ZM5.66803 8.94609C5.55875 8.98115 5.44125 8.98115 5.33197 8.94609L4.35804 8.63359C4.02155 8.52563 3.66917 8.47059 3.31448 8.47059H1.65C0.73873 8.47059 0 7.75951 0 6.88235V1.58824C0 0.711077 0.73873 0 1.65 0H3.85C4.50708 0 5.09688 0.277282 5.5 0.716917C5.90312 0.277282 6.49292 0 7.15 0H9.35C10.2613 0 11 0.711077 11 1.58824V6.88235C11 7.75951 10.2613 8.47059 9.35 8.47059H7.68552C7.33083 8.47059 6.97845 8.52563 6.64196 8.63359L5.66803 8.94609ZM7.15 1.05882H9.35C9.65376 1.05882 9.9 1.29585 9.9 1.58824V6.88235C9.9 7.17474 9.65376 7.41177 9.35 7.41177H7.68552C7.2126 7.41177 6.74277 7.48515 6.29411 7.62911L6.05 7.70743V2.11765C6.05 1.53288 6.54249 1.05882 7.15 1.05882Z" fill="#5B68FF"/>
</svg>
