<svg width="43" height="43" viewBox="0 0 43 43" fill="none" xmlns="http://www.w3.org/2000/svg">
<rect x="22.8629" y="2.83063" width="5.65437" height="27.0361" rx="2.82719" transform="rotate(43.92 22.8629 2.83063)" fill="#5B68FF"/>
<rect x="33.1191" y="17.7593" width="5.65437" height="23.3974" rx="2.82719" transform="rotate(43.92 33.1191 17.7593)" fill="#5B68FF"/>
<rect x="16.4165" y="9.52472" width="5.65437" height="26.7421" rx="2.82719" transform="rotate(-46.08 16.4165 9.52472)" fill="#5B68FF"/>
<path d="M9.72069 26.6988C7.37391 24.9902 3.75244 22.6753 5.76601 20.5844C5.87835 20.4677 5.99829 20.3628 6.1243 20.2696C8.21745 18.7223 11.0996 20.9024 13.2446 22.377C14.3482 23.1357 15.6739 24.1829 17.1619 25.6159C18.6499 27.0488 19.7464 28.3341 20.5461 29.4083C22.1006 31.4962 24.3877 34.2942 22.9204 36.4442C22.832 36.5736 22.7317 36.6974 22.6194 36.814C20.6058 38.905 18.156 35.3733 16.3602 33.0926C15.5959 32.1219 14.5816 30.981 13.2397 29.6888C11.8979 28.3966 10.7196 27.426 9.72069 26.6988Z" fill="#5B68FF"/>
<rect x="22.8589" y="2.83484" width="5.65437" height="15.4999" rx="2.82719" transform="rotate(43.92 22.8589 2.83484)" fill="#5B68FF"/>
<rect x="26.4307" y="24.7048" width="5.65437" height="13.755" rx="2.82719" transform="rotate(43.92 26.4307 24.7048)" fill="#5B68FF"/>
</svg>
