<svg width="31" height="29" viewBox="0 0 31 29" fill="none" xmlns="http://www.w3.org/2000/svg">
<circle cx="14.5" cy="14.5" r="14.5" fill="#CDD3FF"/>
<circle cx="25.5" cy="6.5" r="5.5" fill="#FF5B27"/>
<path d="M24.0044 8.58712V8.09217L25.5357 6.50568C25.6992 6.33333 25.834 6.18234 25.94 6.05271C26.0476 5.92161 26.1278 5.79714 26.1809 5.67929C26.2339 5.56145 26.2604 5.43624 26.2604 5.30366C26.2604 5.15341 26.2251 5.02378 26.1544 4.91477C26.0836 4.80429 25.9872 4.71959 25.8649 4.66067C25.7426 4.60027 25.6049 4.57008 25.4517 4.57008C25.2897 4.57008 25.1483 4.60322 25.0275 4.66951C24.9067 4.7358 24.8139 4.82934 24.7491 4.95013C24.6842 5.07092 24.6518 5.21233 24.6518 5.37437H24C24 5.09891 24.0633 4.85806 24.19 4.65183C24.3167 4.4456 24.4905 4.28577 24.7115 4.17235C24.9324 4.05745 25.1836 4 25.465 4C25.7493 4 25.9997 4.05671 26.2162 4.17014C26.4342 4.28209 26.6044 4.43529 26.7266 4.62973C26.8489 4.82271 26.91 5.04072 26.91 5.28378C26.91 5.4517 26.8784 5.61595 26.815 5.77652C26.7532 5.93708 26.6449 6.11606 26.4902 6.31345C26.3355 6.50937 26.1205 6.74726 25.845 7.02715L24.9457 7.96843V8.00158H26.983V8.58712H24.0044Z" fill="white"/>
<path fill-rule="evenodd" clip-rule="evenodd" d="M8.91265 17.75H20.0808C20.5884 17.75 21 17.3384 21 16.8308C21 16.587 20.9031 16.3532 20.7308 16.1808L20.0808 15.5308C19.837 15.287 19.7 14.9563 19.7 14.6115L19.7 13.1802C19.7 10.3193 17.3807 8 14.5198 8C11.6522 8 9.33017 10.3296 9.33956 13.1972L9.34414 14.5957C9.3453 14.9498 9.20197 15.2891 8.94728 15.5351L8.27861 16.1809C8.10056 16.3529 8 16.5898 8 16.8373C8 17.3414 8.40861 17.75 8.91265 17.75ZM16.1796 19.05C16.6043 19.05 16.9134 19.4581 16.682 19.8143C16.2185 20.528 15.4144 21 14.5 21C13.5856 21 12.7814 20.528 12.3179 19.8143C12.0866 19.4581 12.3956 19.05 12.8204 19.05H16.1796Z" fill="#9DA6BA"/>
</svg>
